<?xml version="1.0" standalone="no"?>
<!DOCTYPE svg PUBLIC "-//W3C//DTD SVG 20010904//EN"
 "http://www.w3.org/TR/2001/REC-SVG-20010904/DTD/svg10.dtd">
<svg version="1.0" xmlns="http://www.w3.org/2000/svg"
 width="400.000000pt" height="400.000000pt" viewBox="0 0 400.000000 400.000000"
 preserveAspectRatio="xMidYMid meet">
<metadata>
Created by potrace 1.14, written by Peter Selinger 2001-2017
</metadata>
<g transform="translate(0.000000,400.000000) scale(0.100000,-0.100000)"
fill="#000000" stroke="none">
<path d="M2393 3049 c35 -19 55 -58 22 -45 -10 4 -15 -1 -15 -14 0 -12 7 -20
18 -21 9 0 12 -3 5 -5 -9 -4 -8 -13 2 -38 8 -18 17 -57 21 -87 4 -30 10 -58
14 -64 13 -18 17 -62 6 -62 -48 1 -51 -3 -21 -23 35 -23 28 -26 -18 -7 -28 11
-79 24 -231 57 -117 25 -398 5 -549 -39 -129 -38 -293 -133 -387 -225 -30 -30
-73 -62 -95 -71 -43 -17 -100 -86 -84 -102 12 -12 13 -45 5 -268 l-8 -200 34
-53 c51 -80 172 -251 176 -248 1 2 -13 31 -33 64 -42 73 -47 96 -5 30 38 -61
120 -140 197 -191 35 -23 58 -44 53 -47 -5 -3 8 -17 30 -31 22 -13 40 -27 40
-31 0 -5 8 -8 17 -8 15 0 15 -1 -1 -13 -17 -13 -18 -14 -2 -20 9 -4 29 1 44
10 26 17 27 17 12 -1 -14 -18 -13 -18 8 -12 15 5 22 3 22 -6 0 -10 2 -10 9 1
8 12 16 12 58 -2 l48 -17 -45 5 -45 6 55 -22 c83 -32 162 -48 295 -59 66 -5
156 -16 200 -25 44 -8 100 -18 125 -21 25 -3 52 -8 60 -11 24 -8 -19 -21 -55
-17 -16 2 -187 7 -380 10 -311 5 -353 8 -375 23 -14 10 -46 23 -71 29 -79 20
-237 89 -281 123 -66 51 -75 55 -50 28 12 -14 19 -29 15 -34 -5 -4 -3 -5 4 -2
6 4 13 3 15 -1 8 -20 149 -118 213 -148 64 -30 171 -58 187 -48 8 5 21 -71 20
-121 -5 -182 -2 -340 7 -343 15 -5 14 -24 -4 -48 -16 -24 2 -26 -225 27 -114
26 -368 105 -434 134 -30 13 51 -85 111 -134 42 -34 63 -44 108 -50 39 -5 60
-14 70 -28 12 -16 24 -20 63 -18 26 1 58 7 69 14 39 20 115 13 253 -23 30 -8
69 -18 85 -22 l30 -7 -25 -8 c-14 -5 19 -6 76 -3 55 3 107 6 115 6 8 1 31 0
52 0 35 -2 38 -4 35 -28 -2 -15 3 -29 10 -31 7 -3 10 1 6 11 -5 13 1 16 30 16
l36 0 2 53 c1 51 2 51 5 9 5 -48 24 -63 48 -38 9 9 24 16 33 16 15 0 15 -2 2
-10 -9 -6 -10 -10 -3 -10 6 0 15 5 19 11 3 6 21 9 39 7 19 -2 32 -1 30 2 -2 3
1 12 7 20 8 13 9 13 5 0 -3 -9 3 -25 12 -37 14 -16 20 -18 32 -9 8 6 18 19 22
29 7 19 66 24 97 7 15 -8 21 -6 29 7 7 13 11 6 16 -32 3 -28 10 -62 15 -77 6
-17 5 -28 -2 -30 -6 -2 -8 -13 -4 -24 6 -19 18 -21 176 -30 159 -8 170 -8 170
9 0 9 7 17 15 17 17 0 82 58 85 75 1 6 4 12 7 15 6 5 -2 -32 -13 -67 -3 -10 3
-5 14 10 13 20 22 25 27 17 4 -7 3 -15 -2 -19 -14 -9 -24 -41 -13 -41 5 0 17
11 28 25 24 30 32 31 32 5 0 -11 5 -20 10 -20 6 0 10 9 10 20 0 22 16 27 23 8
3 -7 11 2 18 20 8 17 19 32 26 32 14 0 43 -61 44 -94 0 -11 3 -15 6 -8 2 6 13
12 23 12 15 0 20 11 25 58 9 79 12 83 20 35 8 -47 29 -62 45 -32 15 28 7 95
-18 149 -12 25 -22 50 -22 56 0 7 -7 15 -16 18 -10 4 -14 14 -11 26 3 11 2 19
-2 18 -18 -2 -21 4 -11 23 15 26 7 34 -19 19 -14 -7 -21 -7 -21 0 0 5 -7 10
-15 10 -8 0 -15 4 -15 8 0 5 -16 16 -35 25 -19 9 -35 23 -35 30 0 13 -52 57
-66 57 -4 0 -16 -7 -26 -17 -17 -15 -18 -15 -12 17 7 30 5 33 -14 28 -15 -4
-23 0 -27 13 -4 11 -19 21 -40 25 -33 6 -105 70 -105 94 0 5 -4 10 -10 10 -9
0 -12 -10 -14 -54 -2 -35 -23 -27 -30 11 -9 60 -7 123 5 123 15 0 59 -42 59
-57 0 -7 4 -13 9 -13 13 0 25 83 17 120 -3 20 -1 30 6 30 8 0 9 3 2 10 -13 13
-64 -4 -64 -20 0 -5 -6 -10 -14 -10 -7 0 -16 -10 -19 -22 -5 -17 -9 -19 -20
-9 -18 14 -29 51 -16 51 5 0 9 9 9 20 0 12 -5 17 -14 14 -8 -3 14 23 47 58 34
35 76 80 94 101 l31 37 17 -44 c19 -50 15 -75 -21 -113 l-23 -25 76 -72 c43
-39 94 -89 114 -110 l37 -40 -4 54 c-2 29 -6 61 -9 71 -13 39 21 18 38 -23
l16 -43 -4 77 c-2 43 -11 91 -20 107 -8 17 -15 37 -15 46 0 8 -7 15 -15 15
-13 0 -22 20 -26 60 -3 32 1 60 9 60 5 0 14 -10 20 -22 11 -21 11 -20 6 10 -8
45 6 159 17 141 15 -23 10 3 -10 58 -20 54 -69 114 -93 112 -7 0 -4 -4 7 -9
16 -7 17 -9 3 -9 -13 -1 -18 -15 -24 -68 -3 -38 -13 -88 -20 -111 -19 -66 -64
-108 -64 -61 0 11 5 17 10 14 6 -3 10 2 10 12 0 10 10 24 21 31 17 11 20 20
16 48 -4 20 -2 32 4 29 5 -4 9 11 9 32 0 76 16 106 70 132 66 32 76 45 62 76
-7 14 -18 25 -25 25 -8 0 -20 12 -28 28 -8 15 -18 30 -23 34 -5 3 -10 33 -12
65 -3 76 -2 75 -14 68 -5 -3 -10 1 -10 9 0 18 15 23 124 41 55 8 97 21 117 36
l31 22 -6 81 c-4 45 -11 99 -16 121 -5 22 -10 55 -10 73 0 22 -5 32 -15 32 -8
0 -15 5 -15 10 0 6 -11 15 -24 21 -13 6 -31 26 -39 45 -11 21 -24 34 -36 34
-11 0 -26 7 -34 15 -23 23 -101 63 -114 58 -6 -2 -14 1 -18 6 -3 6 -14 11 -23
11 -10 0 -39 33 -70 79 -29 43 -78 101 -110 127 -31 27 -68 59 -82 71 -23 22
-150 93 -165 93 -3 0 -3 -6 0 -12 4 -7 -2 -3 -13 10 -11 12 -39 29 -63 37 -56
20 -62 18 -16 -6z m178 -432 c45 -24 104 -64 115 -78 6 -8 14 -25 17 -39 9
-40 33 -100 45 -112 6 -6 8 -18 5 -27 -4 -9 -3 -13 1 -9 4 3 16 -1 26 -9 16
-14 17 -18 4 -31 -9 -8 -12 -22 -9 -31 4 -9 9 -75 12 -146 5 -110 3 -136 -11
-163 -9 -18 -21 -30 -26 -27 -4 3 -10 1 -12 -4 -1 -5 -18 11 -37 35 -26 35
-41 72 -63 162 -36 139 -56 227 -70 302 -6 30 -15 69 -20 85 -15 46 -20 105
-10 105 6 0 20 -6 33 -13z m-1270 -155 c-12 -22 -40 -47 -46 -40 -5 4 42 58
51 58 2 0 0 -8 -5 -18z m1478 -49 c-1 -39 -2 -43 -9 -23 -12 36 -12 70 0 70 6
0 10 -21 9 -47z m64 30 c-7 -2 -19 -2 -25 0 -7 3 -2 5 12 5 14 0 19 -2 13 -5z
m-1343 -38 c19 6 22 4 17 -9 -4 -11 -1 -16 10 -16 13 0 14 -2 2 -17 -10 -11
-11 -17 -3 -20 7 -2 10 -13 7 -23 -3 -13 0 -20 8 -20 10 0 10 -3 1 -12 -9 -9
-9 -15 1 -27 11 -14 10 -14 -5 -2 -15 11 -18 11 -18 0 0 -11 -2 -11 -10 1 -8
12 -10 11 -10 -7 0 -27 -30 -32 -50 -9 -6 8 -17 13 -25 10 -7 -3 -18 7 -26 25
-7 16 -16 28 -20 25 -15 -9 -20 17 -7 33 9 12 9 15 1 9 -16 -9 -16 -5 -3 29 8
20 15 26 30 22 12 -3 18 -1 14 5 -4 6 1 8 14 4 11 -4 23 -2 27 5 6 8 9 8 15
-1 5 -8 16 -9 30 -5z m-333 -117 c-3 -8 -6 -5 -6 6 -1 11 2 17 5 13 3 -3 4
-12 1 -19z m0 -160 c-2 -24 -4 -7 -4 37 0 44 2 63 4 43 2 -21 2 -57 0 -80z
m20 -45 c-3 -10 -5 -4 -5 12 0 17 2 24 5 18 2 -7 2 -21 0 -30z m1810 -285 c-2
-24 -4 -5 -4 42 0 47 2 66 4 43 2 -24 2 -62 0 -85z m-987 47 c-14 -8 -21 -14
-16 -15 21 -1 -19 -30 -42 -30 -19 0 -23 3 -15 11 6 6 9 17 6 24 -4 13 18 20
72 23 17 1 17 -1 -5 -13z m-640 -55 c0 -5 -5 -10 -11 -10 -5 0 -7 5 -4 10 3 6
8 10 11 10 2 0 4 -4 4 -10z m436 -35 c-11 -8 -22 -12 -25 -9 -6 6 19 24 34 24
6 -1 1 -7 -9 -15z m-29 -17 c38 -17 39 -18 23 -29 -13 -8 -13 -10 0 -19 10 -6
16 -6 18 0 2 6 12 10 23 10 23 0 25 18 4 26 -8 4 -12 11 -9 16 4 6 9 6 14 -2
5 -8 13 -9 21 -4 18 11 59 10 58 -1 -2 -24 -18 -38 -38 -32 -11 3 -21 2 -21
-3 0 -13 32 -21 44 -10 9 6 19 5 33 -5 12 -8 35 -17 53 -18 17 -2 36 -9 42
-15 15 -15 48 -16 48 -2 0 6 -7 10 -15 10 -8 0 -15 5 -15 10 0 6 6 10 13 10 9
0 9 2 -1 8 -15 10 -5 43 11 36 7 -2 25 0 42 4 25 7 32 5 40 -12 7 -14 29 -25
70 -35 33 -8 62 -18 65 -22 3 -4 28 -13 55 -20 28 -6 62 -18 78 -26 27 -14 52
-10 42 8 -4 5 -2 9 4 9 5 0 14 -6 18 -12 18 -29 84 -40 148 -25 11 2 14 2 8 0
-24 -8 -13 -25 12 -21 22 5 23 3 13 -16 -16 -31 -108 -115 -150 -137 -70 -36
-136 -58 -157 -52 -17 4 -19 8 -10 19 9 11 8 14 -4 14 -8 0 -17 6 -20 14 -4 9
-14 12 -26 9 -13 -3 -21 -1 -21 7 0 7 -7 10 -16 6 -8 -3 -12 -2 -9 4 8 13 -8
13 -22 -1 -7 -7 -14 -6 -24 4 -8 7 -31 16 -52 20 l-39 6 34 -29 c18 -16 36
-30 41 -30 16 0 6 -23 -25 -56 l-32 -34 -98 0 c-84 0 -98 2 -98 16 0 9 11 27
25 40 27 25 31 34 14 34 -7 0 -22 -12 -35 -27 -13 -16 -24 -25 -24 -20 0 11
23 51 35 59 6 4 6 8 1 8 -5 0 -3 7 4 15 10 12 10 16 -1 20 -58 20 -70 26 -65
34 3 5 15 7 26 4 14 -4 20 0 20 11 0 11 9 16 30 16 19 0 33 6 37 16 7 20 -17
37 -33 23 -9 -7 -12 -3 -10 16 1 20 5 25 19 21 9 -2 15 0 11 5 -7 12 -40 12
-62 0 -24 -13 -174 15 -189 35 -9 12 -18 14 -45 7 -45 -13 -101 -10 -105 4 -2
6 5 14 16 18 12 3 21 11 21 16 0 5 6 9 14 9 7 0 25 11 40 25 30 28 43 30 83
13z m-500 -34 c-3 -3 -12 -4 -19 -1 -8 3 -5 6 6 6 11 1 17 -2 13 -5z m189 -10
c-5 -12 -1 -14 17 -10 12 3 16 3 10 0 -7 -3 -13 -13 -13 -23 0 -9 -5 -22 -10
-27 -7 -7 -8 -19 -1 -36 5 -14 8 -42 7 -63 -3 -34 -1 -36 20 -32 19 3 24 -1
30 -25 4 -21 9 -27 17 -19 7 7 6 15 -3 26 -7 8 -8 15 -2 15 5 0 16 -9 23 -19
12 -16 21 -18 59 -11 25 4 39 8 33 9 -26 2 -12 16 17 16 51 0 31 -19 -88 -81
-17 -8 -99 29 -141 65 -17 15 -31 36 -31 48 0 12 -3 28 -6 37 -5 14 -9 13 -31
-1 -26 -17 -26 -17 -59 22 -37 42 -43 61 -18 51 12 -5 15 -2 10 9 -3 9 -2 13
3 10 5 -3 12 -1 15 3 3 5 26 15 51 22 25 7 47 16 49 19 3 4 14 7 26 8 16 1 20
-2 16 -13z m979 6 c7 -12 -2 -12 -30 0 -19 8 -19 9 2 9 12 1 25 -3 28 -9z
m-835 -10 c0 -5 -2 -10 -4 -10 -3 0 -8 5 -11 10 -3 6 -1 10 4 10 6 0 11 -4 11
-10z m867 -17 c5 -15 -27 -25 -42 -13 -6 5 -15 7 -18 3 -4 -3 -7 1 -7 9 0 18
61 20 67 1z m-1092 -133 c3 -5 2 -10 -4 -10 -5 0 -13 5 -16 10 -3 6 -2 10 4
10 5 0 13 -4 16 -10z m499 -40 c-6 -5 -24 21 -24 34 0 6 6 1 14 -10 8 -10 12
-21 10 -24z m-316 -134 c60 -30 166 -62 260 -77 40 -7 70 -14 68 -17 -8 -8
-168 19 -206 35 -19 8 -46 11 -60 8 -19 -4 -21 -3 -10 5 13 8 12 10 -3 10 -21
0 -93 35 -102 50 -9 15 1 12 53 -14z m269 -122 c-3 -3 -12 -4 -19 -1 -8 3 -5
6 6 6 11 1 17 -2 13 -5z m408 -153 c24 -9 8 -10 -79 -6 -60 3 -168 5 -240 6
-86 0 -124 3 -111 9 27 13 393 5 430 -9z m390 -41 c3 -5 1 -10 -4 -10 -6 0
-11 5 -11 10 0 6 2 10 4 10 3 0 8 -4 11 -10z m-908 -172 c-3 -8 -6 -5 -6 6 -1
11 2 17 5 13 3 -3 4 -12 1 -19z m339 -20 c-9 -5 -16 -15 -16 -22 0 -13 -39
-30 -48 -21 -9 9 34 64 52 67 26 4 34 -12 12 -24z m-306 -18 c-20 -13 -33 -13
-25 0 3 6 14 10 23 10 15 0 15 -2 2 -10z m387 -36 c-3 -3 -12 -4 -19 -1 -8 3
-5 6 6 6 11 1 17 -2 13 -5z m-356 -37 c19 3 29 1 29 -6 0 -17 -63 -10 -66 7
-1 7 0 8 2 3 3 -6 19 -8 35 -4z m189 -57 c-4 -27 -4 -52 -2 -55 3 -3 22 11 44
30 33 31 45 35 91 35 29 0 58 5 65 12 9 9 12 9 12 -1 0 -8 6 -11 16 -7 8 3 3
-7 -13 -22 -16 -16 -58 -38 -98 -52 -99 -33 -125 -44 -125 -52 0 -14 48 -8 64
8 14 13 16 13 16 1 0 -16 21 -27 51 -27 23 0 24 -6 3 -27 -13 -14 -38 -15
-177 -10 -89 4 -172 7 -185 7 -15 0 -21 4 -16 12 5 8 2 9 -10 5 -13 -5 -17 -2
-14 11 3 15 16 17 120 14 136 -4 132 -7 143 105 4 40 10 71 14 68 4 -2 5 -27
1 -55z m-237 -30 c7 0 6 -4 -2 -9 -13 -8 -13 -12 0 -27 8 -10 9 -15 2 -11 -7
4 -13 0 -16 -10 -3 -10 -5 7 -5 37 0 30 2 47 5 38 2 -10 10 -18 16 -18z m892
-278 c-7 -8 -35 7 -35 18 0 6 7 6 20 -2 10 -7 17 -14 15 -16z m-40 -32 c-3 -5
-10 -10 -16 -10 -5 0 -9 5 -9 10 0 6 7 10 16 10 8 0 12 -4 9 -10z"/>
<path d="M1775 1660 c-3 -5 1 -10 9 -10 9 0 16 5 16 10 0 6 -4 10 -9 10 -6 0
-13 -4 -16 -10z"/>
<path d="M2018 1634 c6 -3 12 -14 12 -25 0 -11 7 -19 16 -19 8 0 12 5 9 10 -9
14 8 13 23 -2 9 -9 12 -8 12 5 0 10 -6 19 -12 21 -24 8 -73 15 -60 10z"/>
<path d="M2040 1570 c0 -5 5 -10 11 -10 5 0 7 5 4 10 -3 6 -8 10 -11 10 -2 0
-4 -4 -4 -10z"/>
<path d="M2235 1459 c-4 -6 -5 -12 -2 -15 2 -3 7 2 10 11 7 17 1 20 -8 4z"/>
<path d="M1400 1669 c0 -6 -9 -9 -20 -6 -11 3 -20 1 -20 -4 0 -15 36 -10 50 6
9 10 9 15 1 15 -6 0 -11 -5 -11 -11z"/>
<path d="M2906 2797 c3 -10 9 -15 12 -12 3 3 0 11 -7 18 -10 9 -11 8 -5 -6z"/>
<path d="M2955 2785 c4 -11 8 -26 8 -32 0 -7 2 -11 5 -8 3 2 14 -12 24 -33 11
-20 27 -45 36 -54 16 -19 52 -25 52 -9 0 12 -70 100 -105 131 -25 22 -27 22
-20 5z"/>
<path d="M2950 2660 c20 -13 33 -13 25 0 -3 6 -14 10 -23 10 -15 0 -15 -2 -2
-10z"/>
<path d="M1046 2524 c-26 -25 -20 -63 9 -70 30 -7 30 -7 39 29 4 16 2 27 -4
27 -5 0 -10 7 -10 15 0 19 -14 19 -34 -1z"/>
<path d="M3210 2501 c0 -11 4 -22 9 -25 4 -3 6 6 3 19 -5 30 -12 33 -12 6z"/>
<path d="M890 1818 c0 -17 72 -17 78 0 2 8 -9 12 -37 12 -26 0 -41 -5 -41 -12z"/>
<path d="M3110 1821 c0 -6 5 -13 10 -16 6 -3 10 1 10 9 0 9 -4 16 -10 16 -5 0
-10 -4 -10 -9z"/>
<path d="M885 1770 c3 -5 8 -10 11 -10 2 0 4 5 4 10 0 6 -5 10 -11 10 -5 0 -7
-4 -4 -10z"/>
<path d="M1002 1665 c-6 -14 -10 -25 -7 -25 7 0 35 32 35 41 0 18 -17 9 -28
-16z"/>
<path d="M1420 1343 c0 -9 40 -36 45 -31 2 2 -8 11 -21 21 -13 10 -24 14 -24
10z"/>
<path d="M940 1309 c0 -11 5 -17 10 -14 6 3 10 13 10 21 0 8 -4 14 -10 14 -5
0 -10 -9 -10 -21z"/>
<path d="M2756 1201 c-17 -6 -17 -8 -4 -14 10 -3 19 0 22 9 3 8 4 14 3 13 -1
0 -11 -4 -21 -8z"/>
<path d="M1203 1188 c-13 -6 -23 -15 -23 -20 0 -15 27 -8 45 12 20 22 12 25
-22 8z"/>
<path d="M765 1129 c-6 -27 -1 -49 9 -38 10 11 17 69 8 69 -6 0 -13 -14 -17
-31z"/>
<path d="M1130 1125 c-15 -33 -23 -75 -16 -75 12 0 37 63 33 83 -3 20 -5 20
-17 -8z"/>
<path d="M921 1133 c0 -6 -4 -20 -7 -30 -5 -14 -4 -15 5 -7 7 7 11 20 8 30 -3
11 -5 14 -6 7z"/>
<path d="M2900 1112 c0 -11 4 -23 9 -26 11 -7 23 -80 15 -100 -3 -9 -10 -13
-15 -10 -5 3 -9 0 -9 -5 0 -6 6 -11 13 -11 9 0 8 -3 -2 -9 -7 -5 -9 -11 -5
-14 15 -9 64 5 63 17 -1 6 2 19 6 30 5 11 3 26 -3 37 -7 10 -12 25 -12 33 0 8
-3 16 -8 18 -4 2 -17 16 -30 32 -20 26 -22 27 -22 8z"/>
<path d="M1300 1089 c0 -5 5 -7 10 -4 6 3 10 8 10 11 0 2 -4 4 -10 4 -5 0 -10
-5 -10 -11z"/>
<path d="M1438 1038 c-18 -18 -45 -55 -58 -83 -13 -27 -38 -65 -55 -83 -41
-46 -49 -62 -37 -74 16 -16 81 0 95 22 6 11 22 20 34 20 14 0 26 10 34 28 12
27 58 47 152 67 16 3 27 11 24 18 -9 28 -145 49 -140 22 2 -15 -18 -36 -28
-29 -14 9 -10 37 11 79 11 22 20 41 20 42 0 11 -22 -2 -52 -29z"/>
<path d="M3120 1021 c0 -6 5 -13 10 -16 6 -3 10 1 10 9 0 9 -4 16 -10 16 -5 0
-10 -4 -10 -9z"/>
<path d="M2918 913 c6 -2 18 -2 25 0 6 3 1 5 -13 5 -14 0 -19 -2 -12 -5z"/>
<path d="M1189 839 c-29 -31 -30 -49 -3 -49 20 0 64 45 64 65 0 25 -30 17 -61
-16z"/>
<path d="M782 805 c0 -16 2 -22 5 -12 2 9 2 23 0 30 -3 6 -5 -1 -5 -18z"/>
<path d="M1624 772 c-24 -15 -33 -47 -19 -65 12 -17 14 -16 20 12 4 17 11 31
16 31 5 0 9 7 9 15 0 16 -9 19 -26 7z"/>
<path d="M775 676 c-8 -74 0 -139 23 -178 21 -37 30 -35 38 7 3 19 10 35 15
35 5 0 8 20 7 45 0 25 -4 45 -8 45 -12 0 -31 -69 -24 -94 4 -15 2 -26 -4 -26
-19 0 -37 75 -35 153 0 42 -1 77 -2 77 -2 0 -6 -29 -10 -64z"/>
<path d="M434 690 c-23 -9 -39 -28 -31 -36 3 -3 18 6 33 20 31 27 31 29 -2 16z"/>
<path d="M890 613 c0 -21 5 -45 10 -53 7 -11 10 -2 10 32 0 26 -4 50 -10 53
-6 4 -10 -9 -10 -32z"/>
<path d="M1518 643 c7 -3 16 -2 19 1 4 3 -2 6 -13 5 -11 0 -14 -3 -6 -6z"/>
<path d="M1570 630 c33 -11 70 -12 70 -2 0 5 -21 9 -47 9 -38 1 -43 0 -23 -7z"/>
<path d="M346 593 c-6 -14 -5 -15 5 -6 7 7 10 15 7 18 -3 3 -9 -2 -12 -12z"/>
<path d="M1090 595 c0 -17 2 -18 24 -9 18 7 12 24 -10 24 -8 0 -14 -7 -14 -15z"/>
<path d="M3363 567 c-21 -27 -22 -49 -3 -85 11 -20 23 -51 26 -69 3 -18 10
-33 14 -33 14 0 20 31 10 50 -14 25 -13 30 6 30 18 0 11 34 -12 61 -8 8 -14
23 -14 32 0 21 -15 30 -27 14z"/>
<path d="M1540 485 c14 -8 19 -14 11 -15 -8 0 -12 -2 -9 -5 3 -4 18 -3 34 1
l29 7 -35 13 c-47 17 -61 16 -30 -1z"/>
<path d="M1605 458 c-11 -12 -14 -18 -7 -14 8 5 12 -4 13 -31 1 -21 1 -44 0
-52 -2 -7 2 -10 8 -6 6 3 11 12 11 20 0 7 4 15 10 17 5 2 12 22 16 46 6 37 4
42 -12 41 -11 0 -28 -10 -39 -21z"/>
<path d="M1680 423 c5 -2 10 -13 10 -24 0 -11 7 -19 16 -19 15 0 15 2 2 22 -8
12 -20 23 -27 24 -6 1 -7 0 -1 -3z"/>
<path d="M2178 423 c7 -3 16 -2 19 1 4 3 -2 6 -13 5 -11 0 -14 -3 -6 -6z"/>
<path d="M3432 375 c0 -16 2 -22 5 -12 2 9 2 23 0 30 -3 6 -5 -1 -5 -18z"/>
<path d="M3127 314 c-4 -4 -7 -14 -7 -23 0 -11 3 -12 11 -4 6 6 10 16 7 23 -2
6 -7 8 -11 4z"/>
</g>
</svg>
